<mxfile host="Electron" modified="2024-02-02T12:42:33.952Z" agent="Mozilla/5.0 (Windows NT 10.0; Win64; x64) AppleWebKit/537.36 (KHTML, like Gecko) draw.io/22.0.2 Chrome/114.0.5735.289 Electron/25.8.4 Safari/537.36" etag="RSsGlI7IsLkRCJuiNtUN" version="22.0.2" type="device">
  <diagram id="RoFN31DEDuAoprLHtcjy" name="Page-1">
    <mxGraphModel dx="1480" dy="866" grid="1" gridSize="10" guides="1" tooltips="1" connect="1" arrows="1" fold="1" page="0" pageScale="1" pageWidth="827" pageHeight="1169" math="0" shadow="0">
      <root>
        <mxCell id="0" />
        <mxCell id="1" parent="0" />
        <mxCell id="6qBjJutos2vkdkk0qgOa-4" value="" style="ellipse;whiteSpace=wrap;html=1;aspect=fixed;rounded=0;shadow=0;glass=0;sketch=0;fillColor=none;" parent="1" vertex="1">
          <mxGeometry x="620" y="305" width="30" height="30" as="geometry" />
        </mxCell>
        <mxCell id="3Ych9QoQo4VoyjM5WHYG-4" value="" style="rounded=0;whiteSpace=wrap;html=1;fillColor=none;dashed=1;" parent="1" vertex="1">
          <mxGeometry x="140" y="210" width="440" height="340" as="geometry" />
        </mxCell>
        <mxCell id="NrXn7nHfLIqUMkxgtaWz-15" value="" style="edgeStyle=orthogonalEdgeStyle;rounded=0;orthogonalLoop=1;jettySize=auto;html=1;entryX=0.5;entryY=0;entryDx=0;entryDy=0;exitX=1;exitY=0.5;exitDx=0;exitDy=0;" parent="1" source="NrXn7nHfLIqUMkxgtaWz-2" target="NrXn7nHfLIqUMkxgtaWz-3" edge="1">
          <mxGeometry relative="1" as="geometry" />
        </mxCell>
        <mxCell id="NrXn7nHfLIqUMkxgtaWz-2" value="Create S3 bucket for claim certificate" style="rounded=1;whiteSpace=wrap;html=1;glass=0;fillColor=#ffe6cc;strokeColor=#d79b00;" parent="1" vertex="1">
          <mxGeometry x="160" y="230" width="80" height="60" as="geometry" />
        </mxCell>
        <mxCell id="NrXn7nHfLIqUMkxgtaWz-16" value="" style="edgeStyle=orthogonalEdgeStyle;rounded=0;orthogonalLoop=1;jettySize=auto;html=1;entryX=0.5;entryY=0;entryDx=0;entryDy=0;exitX=1;exitY=0.5;exitDx=0;exitDy=0;" parent="1" source="NrXn7nHfLIqUMkxgtaWz-3" target="NrXn7nHfLIqUMkxgtaWz-4" edge="1">
          <mxGeometry relative="1" as="geometry" />
        </mxCell>
        <mxCell id="NrXn7nHfLIqUMkxgtaWz-3" value="Create claim certificate" style="rounded=1;whiteSpace=wrap;html=1;fillColor=#dae8fc;strokeColor=#6c8ebf;" parent="1" vertex="1">
          <mxGeometry x="240" y="290" width="80" height="60" as="geometry" />
        </mxCell>
        <mxCell id="NrXn7nHfLIqUMkxgtaWz-17" value="" style="edgeStyle=orthogonalEdgeStyle;rounded=0;orthogonalLoop=1;jettySize=auto;html=1;entryX=0.5;entryY=0;entryDx=0;entryDy=0;exitX=1;exitY=0.5;exitDx=0;exitDy=0;" parent="1" source="NrXn7nHfLIqUMkxgtaWz-4" target="nbG1lQdYn0GSf7l4aML5-1" edge="1">
          <mxGeometry relative="1" as="geometry">
            <mxPoint x="400" y="440" as="targetPoint" />
          </mxGeometry>
        </mxCell>
        <mxCell id="NrXn7nHfLIqUMkxgtaWz-4" value="Create S3 bucket for Pulumi stack" style="rounded=1;whiteSpace=wrap;html=1;fillColor=#d5e8d4;strokeColor=#82b366;" parent="1" vertex="1">
          <mxGeometry x="320" y="350" width="80" height="60" as="geometry" />
        </mxCell>
        <mxCell id="3Ych9QoQo4VoyjM5WHYG-3" value="" style="edgeStyle=orthogonalEdgeStyle;rounded=0;orthogonalLoop=1;jettySize=auto;html=1;exitX=1;exitY=0.5;exitDx=0;exitDy=0;entryX=0.5;entryY=0;entryDx=0;entryDy=0;" parent="1" source="nbG1lQdYn0GSf7l4aML5-1" target="NrXn7nHfLIqUMkxgtaWz-7" edge="1">
          <mxGeometry relative="1" as="geometry" />
        </mxCell>
        <mxCell id="nbG1lQdYn0GSf7l4aML5-3" style="edgeStyle=orthogonalEdgeStyle;rounded=0;orthogonalLoop=1;jettySize=auto;html=1;exitX=1;exitY=0.5;exitDx=0;exitDy=0;entryX=0;entryY=0.5;entryDx=0;entryDy=0;" parent="1" source="NrXn7nHfLIqUMkxgtaWz-7" target="NrXn7nHfLIqUMkxgtaWz-9" edge="1">
          <mxGeometry relative="1" as="geometry">
            <mxPoint x="360" y="520" as="targetPoint" />
          </mxGeometry>
        </mxCell>
        <mxCell id="NrXn7nHfLIqUMkxgtaWz-7" value="Deploy infrastructure" style="rounded=1;whiteSpace=wrap;html=1;shadow=0;glass=0;sketch=0;fillColor=#f8cecc;strokeColor=#b85450;" parent="1" vertex="1">
          <mxGeometry x="480" y="470" width="80" height="60" as="geometry" />
        </mxCell>
        <mxCell id="NrXn7nHfLIqUMkxgtaWz-8" value="" style="ellipse;whiteSpace=wrap;html=1;aspect=fixed;fillColor=#000000;" parent="1" vertex="1">
          <mxGeometry x="625" y="490" width="20" height="20" as="geometry" />
        </mxCell>
        <mxCell id="NrXn7nHfLIqUMkxgtaWz-9" value="" style="ellipse;whiteSpace=wrap;html=1;aspect=fixed;rounded=0;shadow=0;glass=0;sketch=0;fillColor=none;" parent="1" vertex="1">
          <mxGeometry x="620" y="485" width="30" height="30" as="geometry" />
        </mxCell>
        <mxCell id="3Ych9QoQo4VoyjM5WHYG-5" value="Deploy infrastucture" style="text;html=1;fillColor=#e1d5e7;align=center;verticalAlign=middle;whiteSpace=wrap;rounded=1;dashed=1;fontStyle=1;fontSize=15;strokeColor=none;gradientColor=none;gradientDirection=south;" parent="1" vertex="1">
          <mxGeometry x="302.5" y="160" width="145" height="40" as="geometry" />
        </mxCell>
        <mxCell id="3Ych9QoQo4VoyjM5WHYG-8" value="" style="endArrow=none;dashed=1;html=1;rounded=0;fontSize=15;" parent="1" edge="1">
          <mxGeometry width="50" height="50" relative="1" as="geometry">
            <mxPoint x="650" y="370" as="sourcePoint" />
            <mxPoint x="650" y="210" as="targetPoint" />
            <Array as="points">
              <mxPoint x="600" y="370" />
              <mxPoint x="600" y="210" />
            </Array>
          </mxGeometry>
        </mxCell>
        <mxCell id="3Ych9QoQo4VoyjM5WHYG-9" value="Setup provisioning" style="text;html=1;strokeColor=none;fillColor=#e1d5e7;align=center;verticalAlign=middle;whiteSpace=wrap;rounded=1;dashed=1;fontStyle=1;fontSize=15;" parent="1" vertex="1">
          <mxGeometry x="600" y="160" width="90" height="40" as="geometry" />
        </mxCell>
        <mxCell id="nbG1lQdYn0GSf7l4aML5-1" value="Pulumi login" style="rounded=1;whiteSpace=wrap;html=1;fillColor=#f5f5f5;strokeColor=#666666;fontColor=#333333;" parent="1" vertex="1">
          <mxGeometry x="400" y="410" width="80" height="60" as="geometry" />
        </mxCell>
        <mxCell id="6qBjJutos2vkdkk0qgOa-1" value="Test applications" style="text;html=1;strokeColor=none;fillColor=#e1d5e7;align=center;verticalAlign=middle;whiteSpace=wrap;rounded=1;dashed=1;fontStyle=1;fontSize=15;" parent="1" vertex="1">
          <mxGeometry x="600" y="560" width="90" height="40" as="geometry" />
        </mxCell>
        <mxCell id="6qBjJutos2vkdkk0qgOa-2" value="" style="endArrow=none;dashed=1;html=1;rounded=0;fontSize=15;" parent="1" edge="1">
          <mxGeometry width="50" height="50" relative="1" as="geometry">
            <mxPoint x="650" y="550" as="sourcePoint" />
            <mxPoint x="650" y="390" as="targetPoint" />
            <Array as="points">
              <mxPoint x="600" y="550" />
              <mxPoint x="600" y="390" />
            </Array>
          </mxGeometry>
        </mxCell>
        <mxCell id="6qBjJutos2vkdkk0qgOa-3" value="" style="ellipse;whiteSpace=wrap;html=1;aspect=fixed;fillColor=#000000;" parent="1" vertex="1">
          <mxGeometry x="625" y="310" width="20" height="20" as="geometry" />
        </mxCell>
        <mxCell id="6qBjJutos2vkdkk0qgOa-5" style="edgeStyle=orthogonalEdgeStyle;rounded=0;orthogonalLoop=1;jettySize=auto;html=1;entryX=0;entryY=0.5;entryDx=0;entryDy=0;" parent="1" target="6qBjJutos2vkdkk0qgOa-4" edge="1">
          <mxGeometry relative="1" as="geometry">
            <mxPoint x="630.0000000000086" y="510" as="targetPoint" />
            <mxPoint x="590" y="500" as="sourcePoint" />
            <Array as="points">
              <mxPoint x="590" y="320" />
            </Array>
          </mxGeometry>
        </mxCell>
        <mxCell id="DsLAnTrM9-Dr5WAAFjHc-1" value="" style="endArrow=classic;html=1;rounded=0;entryX=0;entryY=0.5;entryDx=0;entryDy=0;" parent="1" target="NrXn7nHfLIqUMkxgtaWz-2" edge="1">
          <mxGeometry width="50" height="50" relative="1" as="geometry">
            <mxPoint x="40" y="240" as="sourcePoint" />
            <mxPoint x="420" y="310" as="targetPoint" />
          </mxGeometry>
        </mxCell>
        <mxCell id="DsLAnTrM9-Dr5WAAFjHc-2" value="Commit push" style="text;html=1;strokeColor=none;fillColor=none;align=center;verticalAlign=middle;whiteSpace=wrap;rounded=0;" parent="1" vertex="1">
          <mxGeometry x="50" y="220" width="80" height="30" as="geometry" />
        </mxCell>
        <mxCell id="5Am2gnvH7Y_rCSVh9jk8-1" value="" style="rounded=0;whiteSpace=wrap;html=1;fillColor=#f5f5f5;fontColor=#333333;strokeColor=#ED7100;strokeWidth=5;" vertex="1" parent="1">
          <mxGeometry x="465" y="570" width="120" height="65" as="geometry" />
        </mxCell>
        <mxCell id="5Am2gnvH7Y_rCSVh9jk8-2" value="" style="rounded=0;whiteSpace=wrap;html=1;fillColor=#f5f5f5;fontColor=#333333;strokeColor=#ED7100;strokeWidth=5;" vertex="1" parent="1">
          <mxGeometry x="455" y="590" width="120" height="65" as="geometry" />
        </mxCell>
        <mxCell id="5Am2gnvH7Y_rCSVh9jk8-3" value="Prod" style="text;html=1;strokeColor=none;fillColor=none;align=center;verticalAlign=middle;whiteSpace=wrap;rounded=0;fontSize=14;fontStyle=1;fontColor=#000000;" vertex="1" parent="1">
          <mxGeometry x="455" y="590" width="40" height="20" as="geometry" />
        </mxCell>
        <mxCell id="5Am2gnvH7Y_rCSVh9jk8-4" value="Dev" style="text;html=1;strokeColor=none;fillColor=none;align=center;verticalAlign=middle;whiteSpace=wrap;rounded=0;fontSize=14;fontStyle=1;fontColor=#000000;" vertex="1" parent="1">
          <mxGeometry x="465" y="570" width="40" height="20" as="geometry" />
        </mxCell>
        <mxCell id="5Am2gnvH7Y_rCSVh9jk8-5" value="" style="endArrow=classic;html=1;rounded=0;exitX=0.5;exitY=1;exitDx=0;exitDy=0;entryX=0.458;entryY=0;entryDx=0;entryDy=0;dashed=1;entryPerimeter=0;" edge="1" parent="1" source="NrXn7nHfLIqUMkxgtaWz-7" target="5Am2gnvH7Y_rCSVh9jk8-1">
          <mxGeometry width="50" height="50" relative="1" as="geometry">
            <mxPoint x="100" y="280" as="sourcePoint" />
            <mxPoint x="100" y="398" as="targetPoint" />
          </mxGeometry>
        </mxCell>
        <mxCell id="5Am2gnvH7Y_rCSVh9jk8-6" value="" style="sketch=0;points=[[0,0,0],[0.25,0,0],[0.5,0,0],[0.75,0,0],[1,0,0],[0,1,0],[0.25,1,0],[0.5,1,0],[0.75,1,0],[1,1,0],[0,0.25,0],[0,0.5,0],[0,0.75,0],[1,0.25,0],[1,0.5,0],[1,0.75,0]];outlineConnect=0;fontColor=#232F3E;fillColor=#7AA116;strokeColor=#ffffff;dashed=0;verticalLabelPosition=bottom;verticalAlign=top;align=center;html=1;fontSize=12;fontStyle=0;aspect=fixed;shape=mxgraph.aws4.resourceIcon;resIcon=mxgraph.aws4.s3;" vertex="1" parent="1">
          <mxGeometry x="180" y="570" width="40" height="40" as="geometry" />
        </mxCell>
        <mxCell id="5Am2gnvH7Y_rCSVh9jk8-7" value="CERT_BUCKET_NAME" style="text;html=1;strokeColor=none;fillColor=none;align=center;verticalAlign=middle;whiteSpace=wrap;rounded=0;" vertex="1" parent="1">
          <mxGeometry x="157.5" y="610" width="85" height="20" as="geometry" />
        </mxCell>
        <mxCell id="5Am2gnvH7Y_rCSVh9jk8-9" value="" style="endArrow=classic;html=1;rounded=0;exitX=0.5;exitY=1;exitDx=0;exitDy=0;entryX=0.5;entryY=0;entryDx=0;entryDy=0;dashed=1;entryPerimeter=0;" edge="1" parent="1" source="NrXn7nHfLIqUMkxgtaWz-2" target="5Am2gnvH7Y_rCSVh9jk8-6">
          <mxGeometry width="50" height="50" relative="1" as="geometry">
            <mxPoint x="560" y="540" as="sourcePoint" />
            <mxPoint x="560" y="580" as="targetPoint" />
          </mxGeometry>
        </mxCell>
        <mxCell id="5Am2gnvH7Y_rCSVh9jk8-10" value="" style="sketch=0;points=[[0,0,0],[0.25,0,0],[0.5,0,0],[0.75,0,0],[1,0,0],[0,1,0],[0.25,1,0],[0.5,1,0],[0.75,1,0],[1,1,0],[0,0.25,0],[0,0.5,0],[0,0.75,0],[1,0.25,0],[1,0.5,0],[1,0.75,0]];outlineConnect=0;fontColor=#232F3E;fillColor=#7AA116;strokeColor=#ffffff;dashed=0;verticalLabelPosition=bottom;verticalAlign=top;align=center;html=1;fontSize=12;fontStyle=0;aspect=fixed;shape=mxgraph.aws4.resourceIcon;resIcon=mxgraph.aws4.s3;" vertex="1" parent="1">
          <mxGeometry x="340" y="570" width="40" height="40" as="geometry" />
        </mxCell>
        <mxCell id="5Am2gnvH7Y_rCSVh9jk8-11" value="IAC_BUCKET_NAME" style="text;html=1;strokeColor=none;fillColor=none;align=center;verticalAlign=middle;whiteSpace=wrap;rounded=0;" vertex="1" parent="1">
          <mxGeometry x="317.5" y="610" width="85" height="20" as="geometry" />
        </mxCell>
        <mxCell id="5Am2gnvH7Y_rCSVh9jk8-12" value="" style="endArrow=classic;html=1;rounded=0;exitX=0.5;exitY=1;exitDx=0;exitDy=0;entryX=0.5;entryY=0;entryDx=0;entryDy=0;dashed=1;entryPerimeter=0;" edge="1" parent="1" source="NrXn7nHfLIqUMkxgtaWz-4" target="5Am2gnvH7Y_rCSVh9jk8-10">
          <mxGeometry width="50" height="50" relative="1" as="geometry">
            <mxPoint x="210" y="300" as="sourcePoint" />
            <mxPoint x="210" y="580" as="targetPoint" />
          </mxGeometry>
        </mxCell>
        <mxCell id="5Am2gnvH7Y_rCSVh9jk8-14" value="Create" style="text;html=1;strokeColor=none;fillColor=none;align=left;verticalAlign=middle;whiteSpace=wrap;rounded=0;rotation=-90;" vertex="1" parent="1">
          <mxGeometry x="130" y="470" width="120" height="20" as="geometry" />
        </mxCell>
        <mxCell id="5Am2gnvH7Y_rCSVh9jk8-15" value="Store claim certificate" style="text;html=1;strokeColor=none;fillColor=none;align=left;verticalAlign=middle;whiteSpace=wrap;rounded=0;rotation=-90;" vertex="1" parent="1">
          <mxGeometry x="210" y="470" width="120" height="20" as="geometry" />
        </mxCell>
        <mxCell id="5Am2gnvH7Y_rCSVh9jk8-16" value="" style="endArrow=classic;html=1;rounded=0;exitX=0.5;exitY=1;exitDx=0;exitDy=0;entryX=1;entryY=0.5;entryDx=0;entryDy=0;dashed=1;entryPerimeter=0;" edge="1" parent="1" source="NrXn7nHfLIqUMkxgtaWz-3" target="5Am2gnvH7Y_rCSVh9jk8-6">
          <mxGeometry width="50" height="50" relative="1" as="geometry">
            <mxPoint x="210" y="300" as="sourcePoint" />
            <mxPoint x="210" y="580" as="targetPoint" />
            <Array as="points">
              <mxPoint x="280" y="590" />
            </Array>
          </mxGeometry>
        </mxCell>
        <mxCell id="5Am2gnvH7Y_rCSVh9jk8-17" value="Create" style="text;html=1;strokeColor=none;fillColor=none;align=left;verticalAlign=middle;whiteSpace=wrap;rounded=0;rotation=-90;" vertex="1" parent="1">
          <mxGeometry x="290" y="470" width="120" height="20" as="geometry" />
        </mxCell>
        <mxCell id="5Am2gnvH7Y_rCSVh9jk8-18" value="" style="endArrow=classic;html=1;rounded=0;exitX=0.5;exitY=1;exitDx=0;exitDy=0;entryX=1;entryY=0.5;entryDx=0;entryDy=0;dashed=1;entryPerimeter=0;" edge="1" parent="1" source="nbG1lQdYn0GSf7l4aML5-1" target="5Am2gnvH7Y_rCSVh9jk8-10">
          <mxGeometry width="50" height="50" relative="1" as="geometry">
            <mxPoint x="385" y="420" as="sourcePoint" />
            <mxPoint x="385" y="580" as="targetPoint" />
            <Array as="points">
              <mxPoint x="440" y="590" />
            </Array>
          </mxGeometry>
        </mxCell>
        <mxCell id="5Am2gnvH7Y_rCSVh9jk8-19" value="Login to S3" style="text;html=1;strokeColor=none;fillColor=none;align=left;verticalAlign=middle;whiteSpace=wrap;rounded=0;rotation=-90;" vertex="1" parent="1">
          <mxGeometry x="370" y="470" width="120" height="20" as="geometry" />
        </mxCell>
      </root>
    </mxGraphModel>
  </diagram>
</mxfile>
